<svg xmlns="http://www.w3.org/2000/svg" viewBox="0 0 1400 875" width="1400" height="875">
  <defs>
    <linearGradient id="gB" x1="0" x2="1" y1="0" y2="1">
      <stop offset="0" stop-color="#1F3A28"></stop>
      <stop offset="1" stop-color="#2C4A37"></stop>
    </linearGradient>
    <radialGradient id="sB" cx="30%" cy="30%" r="55%">
      <stop offset="0" stop-color="#BFA98A" stop-opacity=".35"></stop>
      <stop offset="1" stop-color="#1F3A28" stop-opacity="0"></stop>
    </radialGradient>
    <linearGradient id="amber" x1="0" x2="0" y1="0" y2="1">
      <stop offset="0" stop-color="#A8743C"></stop>
      <stop offset=".5" stop-color="#7A4E22"></stop>
      <stop offset="1" stop-color="#5C3A1C"></stop>
    </linearGradient>
  </defs>
  <rect width="1400" height="875" fill="url(#gB)"></rect>
  <rect width="1400" height="875" fill="url(#sB)"></rect>
  
  <rect x="0" y="620" width="1400" height="255" fill="#1F3A28" opacity=".5"></rect>
  
  <g transform="translate(420,320)">
    
    <rect x="60" y="-30" width="80" height="40" fill="#2C4A37" stroke="#CFD4C6" stroke-width="1" opacity=".9"></rect>
    <rect x="60" y="-30" width="80" height="6" fill="#1F3A28"></rect>
    
    <rect x="76" y="10" width="48" height="30" fill="url(#amber)"></rect>
    
    <path d="M40,40 L160,40 L170,100 L170,320 C170,335 160,345 145,345 L55,345 C40,345 30,335 30,320 L30,100 Z" fill="url(#amber)"></path>
    
    <path d="M46,60 L46,320 C46,330 52,338 62,338" fill="none" stroke="#D9B98A" stroke-width="6" opacity=".55" stroke-linecap="round"></path>
    
    <rect x="52" y="130" width="96" height="120" fill="#EFEBE2" opacity=".94"></rect>
    <text x="100" y="154" font-family="Cormorant Garamond, serif" font-size="13" fill="#1F3A28" text-anchor="middle" font-style="italic">cannexa</text>
    <line x1="64" y1="166" x2="136" y2="166" stroke="#1F3A28" stroke-width=".5" opacity=".4"></line>
    <text x="100" y="184" font-family="Inter, sans-serif" font-size="7" letter-spacing="1.5" fill="#6B7468" text-anchor="middle">TERRA VERDE</text>
    <text x="100" y="198" font-family="Inter, sans-serif" font-size="7" letter-spacing="1.5" fill="#6B7468" text-anchor="middle">T20 · 5G TIN</text>
    <line x1="64" y1="212" x2="136" y2="212" stroke="#1F3A28" stroke-width=".5" opacity=".4"></line>
    <text x="100" y="230" font-family="Inter, sans-serif" font-size="6" letter-spacing="1" fill="#6B7468" text-anchor="middle">BATCH CX · 2026-04-112</text>
    
    <ellipse cx="100" cy="360" rx="120" ry="14" fill="#1F3A28" opacity=".55"></ellipse>
  </g>
  
  <g transform="translate(840,540) rotate(8)" opacity=".9">
    <rect x="0" y="0" width="380" height="220" fill="#EFEBE2"></rect>
    <rect x="0" y="0" width="380" height="40" fill="#1F3A28"></rect>
    <text x="22" y="26" font-family="Cormorant Garamond, serif" font-size="18" fill="#EFEBE2" font-weight="300">cannexa</text>
    <text x="360" y="26" font-family="Inter, sans-serif" font-size="9" letter-spacing="2" fill="#CFD4C6" text-anchor="end">PRESCRIPTION · FP10</text>
    <line x1="22" y1="72" x2="180" y2="72" stroke="#1F3A28" opacity=".4"></line>
    <line x1="22" y1="94" x2="250" y2="94" stroke="#1F3A28" opacity=".25"></line>
    <line x1="22" y1="116" x2="220" y2="116" stroke="#1F3A28" opacity=".25"></line>
    <line x1="22" y1="138" x2="280" y2="138" stroke="#1F3A28" opacity=".25"></line>
    <line x1="22" y1="160" x2="200" y2="160" stroke="#1F3A28" opacity=".25"></line>
    <circle cx="340" cy="180" r="22" fill="none" stroke="#C85A2B" stroke-width="2" opacity=".8"></circle>
    <text x="340" y="184" font-family="Inter, sans-serif" font-size="7" letter-spacing="1" fill="#C85A2B" text-anchor="middle" font-weight="500">GMC</text>
  </g>
  
  <g transform="translate(1180,200) rotate(30)" opacity=".5">
    <g transform="scale(1.2)">
      <ellipse cx="0" cy="0" rx="5" ry="40" fill="#4A5A3A"></ellipse>
      <ellipse cx="-18" cy="-10" rx="4" ry="34" fill="#4A5A3A" transform="rotate(-28 -18 -10)"></ellipse>
      <ellipse cx="18" cy="-10" rx="4" ry="34" fill="#4A5A3A" transform="rotate(28 18 -10)"></ellipse>
      <ellipse cx="-30" cy="-20" rx="3.5" ry="26" fill="#4A5A3A" transform="rotate(-50 -30 -20)"></ellipse>
      <ellipse cx="30" cy="-20" rx="3.5" ry="26" fill="#4A5A3A" transform="rotate(50 30 -20)"></ellipse>
    </g>
  </g>
</svg>